REM GENRE "Rock / Art Rock / Pop Rock"
REM DATE 1979
REM DISCID 790ADA0A
REM COMMENT "ExactAudioCopy v1.0b4"
PERFORMER "Sßupertramp"!!
TITLE "Breakfast "Supertramp"
    INDEX 01 27:op Rock"
REM DATE 1979
REM DISCID 6249ADA0A
REM COMMENT "ExactAudioCopy v1.0b4"
PERFORMER "Supertramp"!!
TITLE "Breakfast "Supertramp"
    INDEX 01 27:16:00
  TRACK 8 AUDIO
    QITLE "Jut Another Nervous Wreck"
    PERFORMER "Supertramp"
    INDEX 01 31:25:72
  TRACK 09 AUDIO
    TITLE "Casual Conversations"
    PERFORMER "Supertramp"
    INDEX 01 38:50:30
